<?xml version="1.0" standalone="no"?><!-- Generator: Gravit.io --><svg xmlns="http://www.w3.org/2000/svg" xmlns:xlink="http://www.w3.org/1999/xlink" style="isolation:isolate" viewBox="0 0 256 256" width="256" height="256"><path d=" M 37.89 73.715 L 37.89 168.92 L 37.89 168.92 Q 37.89 174.695 39.87 177.17 L 39.87 177.17 L 39.87 177.17 Q 41.85 179.645 45.48 179.645 L 45.48 179.645 L 45.48 179.645 Q 47.625 179.645 50.1 179.315 L 50.1 179.315 L 50.1 179.315 Q 52.575 178.985 55.71 177.83 L 55.71 177.83 L 57.195 188.225 L 57.195 188.225 Q 54.555 189.545 49.853 190.37 L 49.853 190.37 L 49.853 190.37 Q 45.15 191.195 41.685 191.195 L 41.685 191.195 L 41.685 191.195 Q 34.26 191.195 29.475 186.988 L 29.475 186.988 L 29.475 186.988 Q 24.69 182.78 24.69 172.715 L 24.69 172.715 L 24.69 73.715 L 37.89 73.715 Z  M 74.19 189.215 L 74.19 106.715 L 87.39 106.715 L 87.39 189.215 L 74.19 189.215 Z  M 71.385 81.635 L 71.385 81.635 L 71.385 81.635 Q 71.385 77.84 73.943 75.117 L 73.943 75.117 L 73.943 75.117 Q 76.5 72.395 80.46 72.395 L 80.46 72.395 L 80.46 72.395 Q 84.42 72.395 87.225 75.117 L 87.225 75.117 L 87.225 75.117 Q 90.03 77.84 90.03 81.635 L 90.03 81.635 L 90.03 81.635 Q 90.03 85.43 87.225 87.905 L 87.225 87.905 L 87.225 87.905 Q 84.42 90.38 80.46 90.38 L 80.46 90.38 L 80.46 90.38 Q 76.5 90.38 73.943 87.905 L 73.943 87.905 L 73.943 87.905 Q 71.385 85.43 71.385 81.635 Z  M 104.715 118.265 L 104.715 106.715 L 117.585 106.715 L 117.585 90.38 L 130.785 86.585 L 130.785 106.715 L 153.225 106.715 L 153.225 118.265 L 130.785 118.265 L 130.785 163.97 L 130.785 163.97 Q 130.785 172.55 132.93 176.098 L 132.93 176.098 L 132.93 176.098 Q 135.075 179.645 140.19 179.645 L 140.19 179.645 L 140.19 179.645 Q 144.48 179.645 147.45 178.738 L 147.45 178.738 L 147.45 178.738 Q 150.42 177.83 154.05 176.345 L 154.05 176.345 L 157.02 186.41 L 157.02 186.41 Q 152.565 188.555 147.285 189.875 L 147.285 189.875 L 147.285 189.875 Q 142.005 191.195 135.9 191.195 L 135.9 191.195 L 135.9 191.195 Q 125.835 191.195 121.71 185.503 L 121.71 185.503 L 121.71 185.503 Q 117.585 179.81 117.585 166.445 L 117.585 166.445 L 117.585 118.265 L 104.715 118.265 Z  M 226.815 173.045 L 231.765 182.615 L 231.765 182.615 Q 226.815 186.575 219.308 188.885 L 219.308 188.885 L 219.308 188.885 Q 211.8 191.195 203.385 191.195 L 203.385 191.195 L 203.385 191.195 Q 193.98 191.195 187.05 188.143 L 187.05 188.143 L 187.05 188.143 Q 180.12 185.09 175.665 179.398 L 175.665 179.398 L 175.665 179.398 Q 171.21 173.705 169.065 165.785 L 169.065 165.785 L 169.065 165.785 Q 166.92 157.865 166.92 147.965 L 166.92 147.965 L 166.92 147.965 Q 166.92 126.845 176.325 115.79 L 176.325 115.79 L 176.325 115.79 Q 185.73 104.735 203.22 104.735 L 203.22 104.735 L 203.22 104.735 Q 208.83 104.735 214.44 105.973 L 214.44 105.973 L 214.44 105.973 Q 220.05 107.21 224.505 110.675 L 224.505 110.675 L 224.505 110.675 Q 228.96 114.14 231.765 120.493 L 231.765 120.493 L 231.765 120.493 Q 234.57 126.845 234.57 137.24 L 234.57 137.24 L 234.57 137.24 Q 234.57 142.685 233.58 149.285 L 233.58 149.285 L 180.615 149.285 L 180.615 149.285 Q 180.615 156.545 182.1 162.155 L 182.1 162.155 L 182.1 162.155 Q 183.585 167.765 186.72 171.643 L 186.72 171.643 L 186.72 171.643 Q 189.855 175.52 194.888 177.583 L 194.888 177.583 L 194.888 177.583 Q 199.92 179.645 207.18 179.645 L 207.18 179.645 L 207.18 179.645 Q 212.79 179.645 218.4 177.665 L 218.4 177.665 L 218.4 177.665 Q 224.01 175.685 226.815 173.045 L 226.815 173.045 Z  M 203.385 116.285 L 203.385 116.285 L 203.385 116.285 Q 193.65 116.285 187.793 121.4 L 187.793 121.4 L 187.793 121.4 Q 181.935 126.515 180.78 138.89 L 180.78 138.89 L 221.7 138.89 L 221.7 138.89 Q 221.7 126.35 216.915 121.318 L 216.915 121.318 L 216.915 121.318 Q 212.13 116.285 203.385 116.285 Z " fill-rule="evenodd" fill="rgb(254,253,254)"/></svg> 