<?xml version="1.0" standalone="no"?><!-- Generator: Gravit.io --><svg xmlns="http://www.w3.org/2000/svg" xmlns:xlink="http://www.w3.org/1999/xlink" style="isolation:isolate" viewBox="0 0 128 128" width="128" height="128"><defs><linearGradient id="_lgradient_1" x1="0.49999999999999994" y1="1" x2="0.5" y2="0"><stop offset="0%" style="stop-color:#9C2D60"/><stop offset="100%" style="stop-color:#FE4C59"/></linearGradient></defs><path d="M 34.947 7.203 L 94.519 7.203 C 108.911 7.203 120.595 18.887 120.595 33.278 L 120.595 93.26 C 120.595 107.651 108.911 119.335 94.519 119.335 L 34.947 119.335 C 20.556 119.335 8.872 107.651 8.872 93.26 L 8.872 33.278 C 8.872 18.887 20.556 7.203 34.947 7.203 Z" style="stroke:none;fill:url(#_lgradient_1);stroke-miterlimit:10;"/><path d=" M 34.916 81.633 L 34.916 81.633 L 41.813 81.633 L 41.813 81.633 Q 42.418 88.046 48.287 93.007 L 48.287 93.007 L 48.287 93.007 Q 54.155 97.968 63.351 97.968 L 63.351 97.968 L 63.351 97.968 Q 72.547 97.968 78.839 93.794 L 78.839 93.794 L 78.839 93.794 Q 85.131 89.619 85.131 80.544 L 85.131 80.544 L 85.131 80.544 Q 85.131 74.978 81.562 71.046 L 81.562 71.046 L 81.562 71.046 Q 77.992 67.113 72.668 65.056 L 72.668 65.056 L 72.668 65.056 Q 67.344 62.999 61.113 60.64 L 61.113 60.64 L 61.113 60.64 Q 54.881 58.28 49.557 55.981 L 49.557 55.981 L 49.557 55.981 Q 44.233 53.682 40.664 49.084 L 40.664 49.084 L 40.664 49.084 Q 37.094 44.486 37.094 38.073 L 37.094 38.073 L 37.094 38.073 Q 37.094 29.603 44.112 23.432 L 44.112 23.432 L 44.112 23.432 Q 51.13 17.261 64.319 17.261 L 64.319 17.261 L 64.319 17.261 Q 74.362 17.261 81.985 20.891 L 81.985 20.891 L 81.985 20.891 Q 81.985 21.133 79.928 27.304 L 79.928 27.304 L 79.928 27.304 Q 73.031 23.795 64.138 23.795 L 64.138 23.795 L 64.138 23.795 Q 55.244 23.795 49.678 27.667 L 49.678 27.667 L 49.678 27.667 Q 44.112 31.539 44.112 38.436 L 44.112 38.436 L 44.112 38.436 Q 44.112 46.18 53.671 50.536 L 53.671 50.536 L 53.671 50.536 Q 57.906 52.472 63.049 54.166 L 63.049 54.166 L 63.049 54.166 Q 68.191 55.86 73.394 57.917 L 73.394 57.917 L 73.394 57.917 Q 78.597 59.974 82.832 62.576 L 82.832 62.576 L 82.832 62.576 Q 87.067 65.177 89.729 69.654 L 89.729 69.654 L 89.729 69.654 Q 92.391 74.131 92.391 79.939 L 92.391 79.939 L 92.391 79.939 Q 92.391 91.071 85.313 97.787 L 85.313 97.787 L 85.313 97.787 Q 78.234 104.502 64.259 104.502 L 64.259 104.502 L 64.259 104.502 Q 50.283 104.502 42.721 97.545 L 42.721 97.545 L 42.721 97.545 Q 35.158 90.587 34.916 81.633 Z " fill="rgb(254,253,254)"/></svg>