<?xml version="1.0" standalone="no"?><!-- Generator: Gravit.io --><svg xmlns="http://www.w3.org/2000/svg" xmlns:xlink="http://www.w3.org/1999/xlink" style="isolation:isolate" viewBox="0 0 512 512" width="512" height="512"><linearGradient id="_lgradient_0" x1="49.999999999999986%" y1="0%" x2="49.99999999999999%" y2="100%"><stop offset="0%" stop-opacity="1" style="stop-color:rgb(156,45,96)"/><stop offset="100%" stop-opacity="1" style="stop-color:rgb(254,76,89)"/></linearGradient><path d=" M 137.652 373.942 L 137.652 373.942 Q 121.908 380.847 105.946 381.142 L 105.946 381.142 L 105.946 381.142 Q 64.702 367.548 57.55 351.242 Q 48.066 329.424 55.147 315.759 L 55.147 315.759 L 55.147 315.759 Q 62.228 302.094 76.286 295.929 L 76.286 295.929 L 76.286 295.929 Q 72.27 307.412 72.65 318.978 L 72.65 318.978 L 72.65 318.978 Q 73.029 330.545 77.345 340.385 L 77.345 340.385 L 77.345 340.385 Q 84.743 357.254 100.78 363.63 L 100.78 363.63 L 100.78 363.63 Q 116.818 370.005 137.623 360.881 L 137.623 360.881 L 137.623 360.881 Q 150.837 355.086 160.69 345.066 L 160.69 345.066 L 160.69 345.066 Q 170.543 335.046 174.065 322.439 L 174.065 322.439 L 174.065 322.439 Q 177.587 309.832 171.915 296.899 L 171.915 296.899 L 171.915 296.899 Q 166.983 285.653 157.599 279.544 L 157.599 279.544 L 157.599 279.544 Q 148.216 273.435 137.13 271.089 L 137.13 271.089 L 137.13 271.089 Q 126.045 268.743 108.288 266.474 L 108.288 266.474 L 108.288 266.474 Q 90.25 264.328 78.901 261.762 L 78.901 261.762 L 78.901 261.762 Q 67.552 259.197 57.702 252.79 L 57.702 252.79 L 57.702 252.79 Q 47.852 246.382 42.674 234.574 L 42.674 234.574 L 42.674 234.574 Q 35.522 218.267 37.937 196.256 L 37.937 196.256 L 37.937 196.256 Q 40.352 174.246 53.589 154.361 L 53.589 154.361 L 53.589 154.361 Q 66.826 134.476 89.88 124.366 L 89.88 124.366 L 89.88 124.366 Q 105.344 117.584 115.702 122.093 L 115.702 122.093 L 115.702 122.093 Q 126.06 126.601 131.731 139.534 L 131.731 139.534 L 131.731 139.534 Q 137.896 153.592 138.793 173.983 L 138.793 173.983 L 138.793 173.983 Q 139.69 194.373 137.209 210.882 L 137.209 210.882 L 137.209 210.882 Q 127.068 212.983 122.629 202.861 L 122.629 202.861 L 122.629 202.861 Q 120.286 197.519 119.436 189.847 L 119.436 189.847 L 119.436 189.847 Q 118.585 182.175 118.082 170.327 L 118.082 170.327 L 118.082 170.327 Q 117.491 157.513 116.579 149.7 L 116.579 149.7 L 116.579 149.7 Q 115.666 141.887 113.324 136.545 L 113.324 136.545 L 113.324 136.545 Q 110.734 130.641 105.864 129.089 L 105.864 129.089 L 105.864 129.089 Q 100.993 127.538 92.277 131.36 L 92.277 131.36 L 92.277 131.36 Q 75.689 138.635 65.992 155.123 L 65.992 155.123 L 65.992 155.123 Q 56.294 171.612 54.271 189.931 L 54.271 189.931 L 54.271 189.931 Q 52.248 208.25 57.55 220.339 L 57.55 220.339 L 57.55 220.339 Q 61.496 229.336 69.498 234.207 L 69.498 234.207 L 69.498 234.207 Q 77.501 239.078 87.092 241.074 L 87.092 241.074 L 87.092 241.074 Q 96.683 243.069 112.417 244.55 L 112.417 244.55 L 112.417 244.55 Q 131.422 246.607 143.721 249.426 L 143.721 249.426 L 143.721 249.426 Q 156.02 252.246 167.25 259.891 L 167.25 259.891 L 167.25 259.891 Q 178.481 267.537 184.77 281.876 L 184.77 281.876 L 184.77 281.876 Q 192.907 300.432 188.001 318.674 L 188.001 318.674 L 188.001 318.674 Q 183.096 336.916 169.371 351.484 L 169.371 351.484 L 169.371 351.484 Q 155.646 366.051 137.652 373.942 L 137.652 373.942 Z  M 221.264 163.292 L 221.264 163.292 Q 216.203 165.511 211.922 164.54 L 211.922 164.54 L 211.922 164.54 Q 207.64 163.568 205.667 159.069 L 205.667 159.069 L 205.667 159.069 Q 203.201 153.446 207.976 145.989 L 207.976 145.989 L 207.976 145.989 Q 212.751 138.531 219.78 135.448 L 219.78 135.448 L 219.78 135.448 Q 229.058 131.38 232.88 140.095 L 232.88 140.095 L 232.88 140.095 Q 235.223 145.437 231.617 152.885 L 231.617 152.885 L 231.617 152.885 Q 228.011 160.333 221.264 163.292 L 221.264 163.292 Z  M 243.997 306.855 L 243.997 306.855 Q 233.594 311.417 225.074 307.276 L 225.074 307.276 L 225.074 307.276 Q 216.553 303.135 211.991 292.733 L 211.991 292.733 L 211.991 292.733 Q 207.182 281.768 205.001 259.594 L 205.001 259.594 L 205.001 259.594 Q 202.819 237.42 205.826 218.67 L 205.826 218.67 L 205.826 218.67 Q 208.833 199.92 217.829 195.974 L 217.829 195.974 L 217.829 195.974 Q 220.36 194.864 222.927 195.75 L 222.927 195.75 L 222.927 195.75 Q 225.494 196.635 226.727 199.447 L 226.727 199.447 L 226.727 199.447 Q 228.454 203.383 225.992 222.229 L 225.992 222.229 L 225.992 222.229 Q 223.495 241.762 223.376 256.396 L 223.376 256.396 L 223.376 256.396 Q 223.257 271.03 228.066 281.995 L 228.066 281.995 L 228.066 281.995 Q 232.382 291.836 237.156 293.932 L 237.156 293.932 L 237.156 293.932 Q 241.931 296.029 249.241 292.823 L 249.241 292.823 L 249.241 292.823 Q 267.891 290.629 270.394 238.242 L 273.673 241.074 Q 279.921 259.589 270.394 279.523 L 270.394 279.523 L 270.394 279.523 Q 260.866 299.457 243.997 306.855 L 243.997 306.855 Z  M 317.875 281.16 L 317.875 281.16 Q 292.853 292.134 280.646 264.3 L 280.646 264.3 L 280.646 264.3 C 280.344 256.38 277.43 245.772 271.873 232.446 L 271.873 232.446 L 271.873 232.446 Q 268.401 212.682 267.238 189.391 L 267.238 189.391 L 267.238 189.391 Q 259.997 191.225 256.13 191.58 L 256.13 191.58 L 253.91 186.52 L 253.91 186.52 Q 264.525 183.206 266.774 182.219 L 266.774 182.219 L 266.774 182.219 Q 265.089 144.743 268.991 115.04 L 268.991 115.04 L 268.991 115.04 Q 272.894 85.337 281.047 81.761 L 281.047 81.761 L 281.047 81.761 Q 283.296 80.775 285.864 81.66 L 285.864 81.66 L 285.864 81.66 Q 288.431 82.546 289.664 85.357 L 289.664 85.357 L 289.664 85.357 Q 291.267 89.012 290.835 97.582 L 290.835 97.582 L 290.835 97.582 Q 290.403 106.152 288.38 124.471 L 288.38 124.471 L 288.38 124.471 Q 288.207 127.899 286.508 143.898 L 286.508 143.898 L 286.508 143.898 Q 284.808 159.896 284.575 175.418 L 284.575 175.418 L 294.978 170.856 L 294.978 170.856 Q 318.314 160.622 334.443 151.537 L 334.443 151.537 L 336.662 156.598 L 336.662 156.598 Q 307.496 173.411 288.659 181.672 L 288.659 181.672 L 284.442 183.522 L 284.442 183.522 Q 284.514 225.728 295.858 251.594 L 295.858 251.594 L 295.858 251.594 Q 301.16 263.684 307.096 267.282 L 307.096 267.282 L 307.096 267.282 Q 313.032 270.881 321.467 267.182 L 321.467 267.182 L 321.467 267.182 Q 335.805 260.893 344.253 241.936 L 344.253 241.936 L 344.253 241.936 Q 347.043 242.542 348.144 215.242 Q 359.014 225.909 348.144 249.28 L 348.144 249.28 L 348.144 249.28 Q 337.275 272.652 317.875 281.16 L 317.875 281.16 Z  M 404.223 242.621 L 404.223 242.621 Q 387.635 249.896 374.772 244.642 L 374.772 244.642 L 374.772 244.642 Q 361.908 239.389 355.62 225.05 L 355.62 225.05 L 355.62 225.05 Q 348.345 208.462 350.926 184.535 L 350.926 184.535 L 350.926 184.535 Q 353.506 160.608 364.501 140.198 L 364.501 140.198 L 364.501 140.198 Q 375.496 119.789 391.522 112.76 L 391.522 112.76 L 391.522 112.76 Q 408.953 105.116 416.475 122.266 L 416.475 122.266 L 416.475 122.266 Q 422.516 136.042 417.354 152.553 L 417.354 152.553 L 417.354 152.553 Q 412.192 169.065 399.214 183.807 L 399.214 183.807 L 399.214 183.807 Q 386.236 198.55 370.669 207.388 L 370.669 207.388 L 370.669 207.388 Q 371.641 212.661 373.984 218.002 L 373.984 218.002 L 373.984 218.002 Q 378.422 228.124 386.442 232.652 L 386.442 232.652 L 386.442 232.652 Q 394.462 237.18 406.552 231.878 L 406.552 231.878 L 406.552 231.878 Q 423.702 224.357 434.845 202.374 L 434.845 202.374 L 434.845 202.374 Q 445.988 180.39 447.706 154.495 L 447.706 154.495 L 452.189 155.546 L 452.189 155.546 Q 451.917 185.501 438.613 209.437 L 438.613 209.437 L 438.613 209.437 Q 425.31 233.374 404.223 242.621 L 404.223 242.621 Z  M 369.732 201.429 L 369.732 201.429 Q 379.691 192.034 389.295 178.771 L 389.295 178.771 L 389.295 178.771 Q 398.899 165.508 403.536 151.239 L 403.536 151.239 L 403.536 151.239 Q 408.173 136.969 403.241 125.723 L 403.241 125.723 L 403.241 125.723 Q 401.761 122.349 399.818 121.358 L 399.818 121.358 L 399.818 121.358 Q 397.875 120.366 394.501 121.846 L 394.501 121.846 L 394.501 121.846 Q 385.785 125.668 379.345 138.884 L 379.345 138.884 L 379.345 138.884 Q 372.906 152.101 370.249 169.357 L 370.249 169.357 L 370.249 169.357 Q 367.592 186.612 369.732 201.429 L 369.732 201.429 Z " fill-rule="evenodd" fill="url(#_lgradient_0)"/><linearGradient id="_lgradient_1" x1="49.999999999999986%" y1="0%" x2="49.99999999999999%" y2="100%"><stop offset="0%" stop-opacity="1" style="stop-color:rgb(156,45,96)"/><stop offset="100%" stop-opacity="1" style="stop-color:rgb(254,76,89)"/></linearGradient><path d=" M 137.13 412.242 C 139.853 411.231 169.834 388.274 129.141 397.121 C 113.11 400.607 106.055 401.412 88.415 401.75 C 121.939 386.703 174.282 364.379 245.415 334.75 C 359.573 287.2 389.415 271.75 433.415 242.75 C 477.415 213.75 475.1 179.983 474.415 221.75 C 473.538 275.196 83.744 441.188 100.78 430.242 C 110.097 424.255 123.961 417.132 137.13 412.242 Z " fill="url(#_lgradient_1)"/></svg>